<svg version="1.2" xmlns="http://www.w3.org/2000/svg" viewBox="0 0 132 34" width="132" height="34">
	<title>ABN-AMRO_Logo_new_colors-svg</title>
	<style>
		.s0 { fill: #009286 } 
		.s1 { fill: #f3c000 } 
		.s2 { fill: #ffffff } 
	</style>
	<path id="polygon649" class="s0" d="m24.8 20.8l-11.9-11.9v23.9l-11.9-11.9v-19.9h23.8z"/>
	<path id="polygon651" class="s1" d="m24.8 20.9l-11.9 11.9v-23.9z"/>
	<path id="path653" fill-rule="evenodd" class="s2" d="m130.2 16.9c0 3.7 0 7.2-4.8 7.2-4.8 0-4.8-3.5-4.8-7.2 0-3.7 0-7.2 4.8-7.2 4.8 0 4.8 3.5 4.8 7.2zm-89.4-6.9l3.8 13.9h-3.1l-0.8-3.1h-4l-0.8 3.1h-2.8l3.8-13.9zm11.4 0c2.2 0 4 0.6 4 3.6 0 1.6-0.8 2.8-2.4 3.1 2.1 0.3 2.6 1.6 2.6 3.5 0 3.5-3.1 3.7-4.3 3.7h-5.1v-13.9zm11.6 0l3.7 9.6v-9.6h2.7v13.9h-3.8l-3.8-10.2h-0.1v10.2h-2.7v-13.9zm21.4 0l3.9 13.9h-3.1l-0.8-3.1h-4l-0.8 3.1h-2.8l3.8-13.9zm10.9 0l2.2 9.5 2.3-9.5h4.5v13.9h-2.8v-10.7l-2.7 10.7h-2.8l-2.5-10.7h-0.1v10.7h-2.8v-13.9zm18.2 0.1c2 0 3.3 1.2 3.3 3.6 0 1.8-0.7 3.1-2.6 3.4 0.6 0 2.5 0.2 2.5 2.7 0 0.9 0 3.5 0.3 4.1h-2.8c-0.4-0.9-0.3-1.8-0.3-2.7 0-1.7 0.1-3.1-2.1-3.1h-0.8v5.8h-2.9v-13.8zm9.3 6.9c0 3.6 0.2 5.1 1.8 5.1 1.7 0 1.8-1.5 1.8-5.1 0-3.6-0.2-5.1-1.8-5.1-1.6 0-1.8 1.5-1.8 5.1zm-73.7-1.3h2c0.6 0 1.5-0.5 1.5-1.8 0-1-0.7-1.8-1.7-1.8h-1.8zm61.9 0.2h1.3c1.2 0 1.5-1.1 1.5-2 0-1.3-0.6-1.8-1.5-1.8h-1.3zm-74.5 2.8h2.8l-1.5-6zm44.5 0h2.8l-1.5-6zm-5.1-2.8l-1.9 1.8-1.8-1.8 1.8-1.9zm-26.7 6h1.6c0.6 0 2-0.1 2-2 0-1.2-0.4-2-1.9-2h-1.7z"/>
</svg>